<svg id="Layer_1" data-name="Layer 1" xmlns="http://www.w3.org/2000/svg" viewBox="0 0 332.75 199.06"><defs><style>.cls-1{fill:#ff5000;}.cls-2{fill:#144733;}.cls-3{fill:#a4a9ad;}.cls-4{fill:#fff;}</style></defs><title>Artboard 1 copy 6</title><path class="cls-1" d="M303.83,82.1a29.22,29.22,0,0,1-50.38-20.16,29.22,29.22,0,0,1,50.33-20.32l2.47-2.41a32.57,32.57,0,0,0-46.63-.49A31.67,31.67,0,0,0,250,61.94a31.77,31.77,0,0,0,9.63,23.17,31.7,31.7,0,0,0,23.15,9.62c9,0,16.94-3.44,23.53-10.23Z"/><path class="cls-2" d="M206.9,41.56a13.9,13.9,0,0,0-14-14H176.05v28h16.88a13.36,13.36,0,0,0,9.89-4.14,13.56,13.56,0,0,0,4.07-9.84m35.4,79.17H212.16L176.05,81.5v39.23H151.61V3.14h41.33a37.05,37.05,0,0,1,27.18,11.23,37,37,0,0,1,11.23,27.19,37.22,37.22,0,0,1-7.67,23,37.75,37.75,0,0,1-19.8,13.8Z"/><path class="cls-3" d="M192.94,4a36.42,36.42,0,0,1,26.6,11,36.41,36.41,0,0,1,11,26.62A36.57,36.57,0,0,1,223,64.08a37.12,37.12,0,0,1-19.38,13.52l-1.23.37,38.07,42h-28L175.24,79.42v40.49H152.43V4ZM150.8,2.33V121.54h26.07v-38l34.94,38h32.33L205.27,78.7a38.67,38.67,0,0,0,19-13.64,38.19,38.19,0,0,0,7.84-23.5A38,38,0,0,0,220.68,13.8,38,38,0,0,0,192.94,2.33Z"/><path class="cls-3" d="M192.94,28.4a13.09,13.09,0,0,1,13.15,13.15,12.67,12.67,0,0,1-3.84,9.28,12.49,12.49,0,0,1-9.31,3.9H176.87V28.4Zm-17.7-1.62V56.35h17.7A14.22,14.22,0,0,0,203.41,52a14.8,14.8,0,0,0,0-20.88,14.32,14.32,0,0,0-10.47-4.31Z"/><path class="cls-2" d="M90.24,68.35,103.3,35.86,116,68.35Zm25-65.21H91.07L44.49,120.73H70.92l11.53-29.1h41.44l11.53,29.1h26.42Z"/><path class="cls-3" d="M114.74,4l45.91,116H136l-11.53-29.1H81.9l-11.53,29.1H45.69L91.61,4ZM90.51,2.33,43.3,121.54H71.48L83,92.45h40.33l11.53,29.09H163L115.84,2.33Z"/><path class="cls-3" d="M103.29,38.06l11.49,29.48H91.44l11.85-29.48M89,69.16h28.11L103.31,33.65Z"/><path class="cls-2" d="M206.9,41.56a13.9,13.9,0,0,0-14-14H176.05v28h16.88a13.36,13.36,0,0,0,9.89-4.14,13.56,13.56,0,0,0,4.07-9.84m35.4,79.17H212.16L176.05,81.5v39.23H151.61V3.14h41.33a37.05,37.05,0,0,1,27.18,11.23,37,37,0,0,1,11.23,27.19,37.22,37.22,0,0,1-7.67,23,37.75,37.75,0,0,1-19.8,13.8Z"/><path class="cls-3" d="M192.94,4a36.42,36.42,0,0,1,26.6,11,36.41,36.41,0,0,1,11,26.62A36.57,36.57,0,0,1,223,64.08a37.12,37.12,0,0,1-19.38,13.52l-1.23.37,38.07,42h-28L175.24,79.42v40.49H152.43V4ZM150.8,2.33V121.54h26.07v-38l34.94,38h32.33L205.27,78.7a38.67,38.67,0,0,0,19-13.64,38.19,38.19,0,0,0,7.84-23.5A38,38,0,0,0,220.68,13.8,38,38,0,0,0,192.94,2.33Z"/><path class="cls-3" d="M192.94,28.4a13.09,13.09,0,0,1,13.15,13.15,12.67,12.67,0,0,1-3.84,9.28,12.49,12.49,0,0,1-9.31,3.9H176.87V28.4Zm-17.7-1.62V56.35h17.7A14.22,14.22,0,0,0,203.41,52a14.8,14.8,0,0,0,0-20.88,14.32,14.32,0,0,0-10.47-4.31Z"/><path class="cls-2" d="M326.67,104.78c-12.42,12.19-30.28,18.28-47.13,18.28-8.2,0-31.23-6-43.17-17.92a58.86,58.86,0,0,1-17.93-43.2q0-25.38,17.93-43.26C248.31,6.76,265.94.81,282.78.81q25,0,43.77,18.16L309.09,36.55A36.46,36.46,0,0,0,256.88,36a35.3,35.3,0,0,0-10.77,26,35.36,35.36,0,0,0,10.77,25.91,35.33,35.33,0,0,0,25.9,10.77q15.25,0,26.31-11.41Z"/><path class="cls-3" d="M236.94,104.57a58.35,58.35,0,0,1-17.69-42.63,58.26,58.26,0,0,1,17.69-42.68c11.06-11,28.2-17.64,45.84-17.64,16.12,0,30.44,5.87,42.6,17.38L309,35.45a37.16,37.16,0,0,0-52.74-.05,36.23,36.23,0,0,0-11,26.54,36.29,36.29,0,0,0,11,26.48,36.24,36.24,0,0,0,26.47,11c10.07,0,18.89-3.79,26.27-11.12l16.44,16.44c-11.51,11-28.6,17.5-45.94,17.5-8.46,0-31.16-6.24-42.6-17.68M235.79,18.1a59.83,59.83,0,0,0-18.17,43.84,59.91,59.91,0,0,0,18.17,43.77c11.91,11.92,34.81,18.15,43.74,18.15,18.06,0,35.89-6.92,47.7-18.51l.58-.57L309.08,86l-.57.59C301.33,94,292.66,97.8,282.78,97.8a34.67,34.67,0,0,1-25.32-10.52,34.72,34.72,0,0,1-10.53-25.34,34.65,34.65,0,0,1,10.53-25.39,35.65,35.65,0,0,1,51.05.57l.57.59L327.71,19l-.59-.57C314.51,6.19,299.6,0,282.78,0c-18.06,0-35.62,6.77-47,18.1"/><path class="cls-3" d="M236.94,104.57a58.35,58.35,0,0,1-17.69-42.63,58.26,58.26,0,0,1,17.69-42.68c11.06-11,28.2-17.64,45.84-17.64,16.12,0,30.44,5.87,42.6,17.38L309,35.45a37.16,37.16,0,0,0-52.74-.05,36.23,36.23,0,0,0-11,26.54,36.29,36.29,0,0,0,11,26.48,36.24,36.24,0,0,0,26.47,11c10.07,0,18.89-3.79,26.27-11.12l16.44,16.44c-11.51,11-28.6,17.5-45.94,17.5-8.46,0-31.16-6.24-42.6-17.68M235.79,18.1a59.83,59.83,0,0,0-18.17,43.84,59.91,59.91,0,0,0,18.17,43.77c11.91,11.92,34.81,18.15,43.74,18.15,18.06,0,35.89-6.92,47.7-18.51l.58-.57L309.08,86l-.57.59C301.33,94,292.66,97.8,282.78,97.8a34.67,34.67,0,0,1-25.32-10.52,34.72,34.72,0,0,1-10.53-25.34,34.65,34.65,0,0,1,10.53-25.39,35.65,35.65,0,0,1,51.05.57l.57.59L327.71,19l-.59-.57C314.51,6.19,299.6,0,282.78,0c-18.06,0-35.62,6.77-47,18.1"/><polyline class="cls-3" points="6.5 62.42 282.36 62.39 302.32 83.54 303.71 82.21 264.54 40.72 263.15 42.04 280.53 60.45 6.5 60.48"/><path class="cls-1" d="M305.75,81.53s1-17.32,1.15-17.11,3.8,16,3.91,15.64,21-18,20.82-17.64-16.37,21.34-16.37,21.34l4.32.95-3.38,1.69s10.35,6.76,10,6.66-12.57-1.48-12.57-1.48L318,108.36l-9-12.89s-2.44,8.34-2.32,8-2.22-8.88-2.22-8.88L285.07,110l17-20.85-6.12-3.8,5.71-.64-7.5-9.19Z"/><path class="cls-4" d="M306.94,84s.53-9.61.64-9.49,2.11,8.84,2.16,8.67,11.66-10,11.55-9.79-9.09,11.84-9.09,11.84l2.4.52-1.87.93s5.74,3.75,5.58,3.7-7-.82-7-.82l2.41,9.32-5-7.15s-1.35,4.62-1.29,4.45-1.24-4.93-1.24-4.93l-10.76,8.52,9.42-11.56-3.4-2.11,3.16-.36-4.16-5.09Z"/><path class="cls-3" d="M192.94,4a36.42,36.42,0,0,1,26.6,11,36.41,36.41,0,0,1,11,26.62A36.57,36.57,0,0,1,223,64.08a37.12,37.12,0,0,1-19.38,13.52l-1.23.37,38.07,42h-28L175.24,79.42v40.49H152.43V4ZM150.8,2.33V121.54h26.07v-38l34.94,38h32.33L205.27,78.7a38.67,38.67,0,0,0,19-13.64,38.19,38.19,0,0,0,7.84-23.5A38,38,0,0,0,220.68,13.8,38,38,0,0,0,192.94,2.33Z"/><path class="cls-3" d="M192.94,28.4a13.09,13.09,0,0,1,13.15,13.15,12.67,12.67,0,0,1-3.84,9.28,12.49,12.49,0,0,1-9.31,3.9H176.87V28.4Zm-17.7-1.62V56.35h17.7A14.22,14.22,0,0,0,203.41,52a14.8,14.8,0,0,0,0-20.88,14.32,14.32,0,0,0-10.47-4.31Z"/><path class="cls-3" d="M114.74,4l45.91,116H136l-11.53-29.1H81.9l-11.53,29.1H45.69L91.61,4ZM90.51,2.33,43.3,121.54H71.48L83,92.45h40.33l11.53,29.09H163L115.84,2.33Z"/><path class="cls-3" d="M103.29,38.06l11.49,29.48H91.44l11.85-29.48M89,69.16h28.11L103.31,33.65Z"/><path class="cls-2" d="M43.27,162.78V136.06H60.35v3.64h-13v7.8H58.43v3.6H47.33v8h13v3.64Z"/><path class="cls-2" d="M76.11,162.78v-11.6A4.18,4.18,0,0,0,75,148a3.88,3.88,0,0,0-2.72-1,3.8,3.8,0,0,0-3.94,4.24v11.6H64.51v-19h3.75v1.91a6,6,0,0,1,2.31-1.61A7.74,7.74,0,0,1,76,144a6,6,0,0,1,2,1.28,5.87,5.87,0,0,1,1.5,2.42,9.91,9.91,0,0,1,.41,2.95v12.16Z"/><path class="cls-2" d="M87.78,154.38a5.75,5.75,0,0,0,1.24,3.9,4.51,4.51,0,0,0,3.6,1.43,6.16,6.16,0,0,0,2.61-.47,7.32,7.32,0,0,0,2-1.48L99.67,160a13.48,13.48,0,0,1-1.48,1.29,8.13,8.13,0,0,1-3.41,1.48,12.09,12.09,0,0,1-2.23.19,10.8,10.8,0,0,1-3.36-.51,6.79,6.79,0,0,1-2.71-1.65,8,8,0,0,1-1.84-3,13.47,13.47,0,0,1-.68-4.58q0-4.65,2.21-7.19a7.44,7.44,0,0,1,5.89-2.53,8.23,8.23,0,0,1,3.41.68A7.17,7.17,0,0,1,98,146.08,8.27,8.27,0,0,1,99.58,149a12.08,12.08,0,0,1,.54,3.71v1.69Zm8.42-4.07a4.71,4.71,0,0,0-.39-1.18,3.82,3.82,0,0,0-1.43-1.74,4.07,4.07,0,0,0-2.33-.66,4.16,4.16,0,0,0-2.35.66,3.79,3.79,0,0,0-1.44,1.74,4.1,4.1,0,0,0-.38,1.18q-.08.54-.11,1.41h8.56A11.57,11.57,0,0,0,96.2,150.3Z"/><path class="cls-2" d="M114.72,148.22a5.18,5.18,0,0,0-1.26-1,3.49,3.49,0,0,0-1.59-.32,3.59,3.59,0,0,0-2.68,1.14,4.32,4.32,0,0,0-1.11,3.13v11.56h-3.83v-19H108v2.06a5.45,5.45,0,0,1,2.1-1.65,6.87,6.87,0,0,1,3-.64,7,7,0,0,1,2.48.41,5.91,5.91,0,0,1,2.06,1.39Z"/><path class="cls-2" d="M132.58,165.9a7.19,7.19,0,0,1-4.17,4.2,9.14,9.14,0,0,1-3.41.6,10.69,10.69,0,0,1-3.7-.56,9.26,9.26,0,0,1-3-2l2.44-2.44a6.69,6.69,0,0,0,1.8,1.28,5.61,5.61,0,0,0,2.33.41,4.83,4.83,0,0,0,2-.39,3.83,3.83,0,0,0,1.39-1.07,4.25,4.25,0,0,0,.79-1.53,6.7,6.7,0,0,0,.24-1.83v-2.43a5.73,5.73,0,0,1-2.25,1.69,7.33,7.33,0,0,1-2.66.46,7.11,7.11,0,0,1-2.59-.45,5.54,5.54,0,0,1-2-1.24,6.29,6.29,0,0,1-1.76-3.34,25.87,25.87,0,0,1,0-8.78,6.3,6.3,0,0,1,1.76-3.34,6.19,6.19,0,0,1,4.58-1.65,7.33,7.33,0,0,1,2.72.47,5.84,5.84,0,0,1,2.27,1.78v-2h3.72v18.91A8.92,8.92,0,0,1,132.58,165.9Zm-3.38-15.17a5.75,5.75,0,0,0-.53-1.92,3.36,3.36,0,0,0-1.18-1.36,3.66,3.66,0,0,0-2-.51,3.74,3.74,0,0,0-2.08.51,3.21,3.21,0,0,0-1.16,1.36,6.34,6.34,0,0,0-.53,1.92,18.56,18.56,0,0,0,0,4.4,6.34,6.34,0,0,0,.53,1.92,3.21,3.21,0,0,0,1.16,1.35,3.73,3.73,0,0,0,2.08.51,3.66,3.66,0,0,0,2-.51,3.36,3.36,0,0,0,1.18-1.35,5.75,5.75,0,0,0,.53-1.92,21.73,21.73,0,0,0,0-4.4Z"/><path class="cls-2" d="M144.25,166.57a6.18,6.18,0,0,1-1.39,2.36,4.22,4.22,0,0,1-1.8,1.09,7.36,7.36,0,0,1-2.1.3h-1.54v-3.41h1a2.9,2.9,0,0,0,1.76-.43,3.43,3.43,0,0,0,1-1.6l1.05-3-6.64-18.15h4.05l4.54,13.4,4.43-13.4h4.09Z"/><path class="cls-2" d="M178.25,162.78l-5.63-11.26h-5.07v11.26H163.5V136.06h10.36a9.56,9.56,0,0,1,3.43.58,7.8,7.8,0,0,1,2.61,1.61,6.94,6.94,0,0,1,1.67,2.48,8.3,8.3,0,0,1,.58,3.13,6.89,6.89,0,0,1-1.54,4.67,7.67,7.67,0,0,1-3.79,2.42L183,162.78Zm-1.41-22a4.78,4.78,0,0,0-3.28-1.11h-6v8.4h6a4.82,4.82,0,0,0,3.28-1.09,3.88,3.88,0,0,0,1.26-3.09A3.93,3.93,0,0,0,176.84,140.82Z"/><path class="cls-2" d="M189.54,154.38a5.75,5.75,0,0,0,1.24,3.9,4.51,4.51,0,0,0,3.6,1.43,6.16,6.16,0,0,0,2.61-.47,7.32,7.32,0,0,0,2-1.48l2.44,2.29a13.48,13.48,0,0,1-1.48,1.29,8.13,8.13,0,0,1-3.41,1.48,12.09,12.09,0,0,1-2.23.19,10.8,10.8,0,0,1-3.36-.51,6.79,6.79,0,0,1-2.71-1.65,8,8,0,0,1-1.84-3,13.47,13.47,0,0,1-.68-4.58q0-4.65,2.21-7.19a7.44,7.44,0,0,1,5.89-2.53,8.23,8.23,0,0,1,3.41.68,7.17,7.17,0,0,1,2.53,1.88,8.27,8.27,0,0,1,1.58,2.89,12.08,12.08,0,0,1,.54,3.71v1.69ZM198,150.3a4.71,4.71,0,0,0-.39-1.18,3.82,3.82,0,0,0-1.43-1.74,4.07,4.07,0,0,0-2.33-.66,4.16,4.16,0,0,0-2.35.66,3.79,3.79,0,0,0-1.44,1.74,4.1,4.1,0,0,0-.38,1.18q-.08.54-.11,1.41h8.56A11.57,11.57,0,0,0,198,150.3Z"/><path class="cls-2" d="M219.48,159.59a5.58,5.58,0,0,1-1.65,1.89,7.24,7.24,0,0,1-2.51,1.14,12.66,12.66,0,0,1-3.15.38,16.33,16.33,0,0,1-4.32-.54,8.43,8.43,0,0,1-3.68-2.2l2.51-2.51a5.68,5.68,0,0,0,2.61,1.59,10.87,10.87,0,0,0,2.87.39,6.26,6.26,0,0,0,3-.64,2.3,2.3,0,0,0,.62-3.55,3.1,3.1,0,0,0-2-.69l-3-.26a7.16,7.16,0,0,1-4.16-1.48,4.7,4.7,0,0,1-1.46-3.77,5.19,5.19,0,0,1,2.1-4.3,7.28,7.28,0,0,1,2.27-1.13,9.56,9.56,0,0,1,2.8-.39,15.07,15.07,0,0,1,3.94.49,7.64,7.64,0,0,1,3.11,1.65l-2.4,2.44a5.41,5.41,0,0,0-2.12-1.07,10.15,10.15,0,0,0-2.57-.32,4.15,4.15,0,0,0-2.59.68,2.13,2.13,0,0,0-.86,1.76,2,2,0,0,0,.54,1.44,3.29,3.29,0,0,0,2.08.73l3,.26a7.1,7.1,0,0,1,4.18,1.52,4.84,4.84,0,0,1,1.48,3.85A5.5,5.5,0,0,1,219.48,159.59Z"/><path class="cls-2" d="M238.32,157.51a7.16,7.16,0,0,1-1.8,3.25,7.49,7.49,0,0,1-2.35,1.61,8.1,8.1,0,0,1-3.36.64,8,8,0,0,1-3.34-.64,7.55,7.55,0,0,1-2.33-1.61,7.16,7.16,0,0,1-1.8-3.25,20.16,20.16,0,0,1,0-8.48,7.16,7.16,0,0,1,1.8-3.25,7.57,7.57,0,0,1,2.33-1.61,8,8,0,0,1,3.34-.64,8.1,8.1,0,0,1,3.36.64,7.51,7.51,0,0,1,2.35,1.61,7.17,7.17,0,0,1,1.8,3.25,20.21,20.21,0,0,1,0,8.48Zm-3.6-7.22a4,4,0,0,0-1.09-2.25,3.81,3.81,0,0,0-2.81-1.09A3.76,3.76,0,0,0,228,148a4,4,0,0,0-1.09,2.25,19.65,19.65,0,0,0,0,5.93,4,4,0,0,0,1.09,2.25,3.77,3.77,0,0,0,2.78,1.13,3.82,3.82,0,0,0,2.81-1.13,4,4,0,0,0,1.09-2.25,19.54,19.54,0,0,0,0-5.93Z"/><path class="cls-2" d="M254.53,162.78v-1.91a6,6,0,0,1-2.31,1.61,7.46,7.46,0,0,1-2.76.52,7.38,7.38,0,0,1-2.64-.45,6,6,0,0,1-2-1.28,5.86,5.86,0,0,1-1.5-2.42,9.91,9.91,0,0,1-.41-2.95V143.76h3.83v11.6a4.18,4.18,0,0,0,1.11,3.23,3.88,3.88,0,0,0,2.72,1,4.77,4.77,0,0,0,1.52-.24,3.17,3.17,0,0,0,1.26-.77,3.86,3.86,0,0,0,.84-1.33,5.16,5.16,0,0,0,.32-1.89v-11.6h3.83v19Z"/><path class="cls-2" d="M273.93,148.22a5.18,5.18,0,0,0-1.26-1,3.49,3.49,0,0,0-1.59-.32,3.59,3.59,0,0,0-2.68,1.14,4.32,4.32,0,0,0-1.11,3.13v11.56h-3.83v-19h3.75v2.06a5.45,5.45,0,0,1,2.1-1.65,6.87,6.87,0,0,1,3-.64,7,7,0,0,1,2.48.41,5.91,5.91,0,0,1,2.06,1.39Z"/><path class="cls-2" d="M288.75,162.37a8.61,8.61,0,0,1-3.45.64,9.53,9.53,0,0,1-3.13-.52,7.13,7.13,0,0,1-2.7-1.69,8.57,8.57,0,0,1-1.91-3,14.35,14.35,0,0,1,0-9,8.38,8.38,0,0,1,1.91-3,7.26,7.26,0,0,1,2.7-1.67,9.53,9.53,0,0,1,3.13-.52,8.83,8.83,0,0,1,3.45.62,8.5,8.5,0,0,1,2.81,2l-2.63,2.55a6.45,6.45,0,0,0-1.71-1.39,4.59,4.59,0,0,0-5.46,1.28,4.48,4.48,0,0,0-.88,1.86,12.79,12.79,0,0,0-.24,2.76,13.06,13.06,0,0,0,.24,2.78,4.49,4.49,0,0,0,.88,1.88,4.59,4.59,0,0,0,5.46,1.28,6.42,6.42,0,0,0,1.71-1.39l2.63,2.51A8.74,8.74,0,0,1,288.75,162.37Z"/><path class="cls-2" d="M297.31,154.38a5.75,5.75,0,0,0,1.24,3.9,4.51,4.51,0,0,0,3.6,1.43,6.16,6.16,0,0,0,2.61-.47,7.32,7.32,0,0,0,2-1.48L309.2,160a13.48,13.48,0,0,1-1.48,1.29,8.13,8.13,0,0,1-3.41,1.48,12.09,12.09,0,0,1-2.23.19,10.8,10.8,0,0,1-3.36-.51,6.79,6.79,0,0,1-2.71-1.65,8,8,0,0,1-1.84-3,13.47,13.47,0,0,1-.68-4.58q0-4.65,2.21-7.19a7.44,7.44,0,0,1,5.89-2.53,8.23,8.23,0,0,1,3.41.68,7.17,7.17,0,0,1,2.53,1.88,8.27,8.27,0,0,1,1.58,2.89,12.08,12.08,0,0,1,.54,3.71v1.69Zm8.42-4.07a4.71,4.71,0,0,0-.39-1.18,3.82,3.82,0,0,0-1.43-1.74,4.07,4.07,0,0,0-2.33-.66,4.16,4.16,0,0,0-2.35.66,3.79,3.79,0,0,0-1.44,1.74,4.1,4.1,0,0,0-.38,1.18q-.08.54-.11,1.41h8.56A11.57,11.57,0,0,0,305.73,150.3Z"/><path class="cls-2" d="M327.25,159.59a5.58,5.58,0,0,1-1.65,1.89,7.24,7.24,0,0,1-2.51,1.14,12.66,12.66,0,0,1-3.15.38,16.33,16.33,0,0,1-4.32-.54,8.43,8.43,0,0,1-3.68-2.2l2.51-2.51a5.68,5.68,0,0,0,2.61,1.59,10.87,10.87,0,0,0,2.87.39,6.26,6.26,0,0,0,3-.64,2.3,2.3,0,0,0,.62-3.55,3.1,3.1,0,0,0-2-.69l-3-.26a7.16,7.16,0,0,1-4.16-1.48,4.7,4.7,0,0,1-1.46-3.77,5.19,5.19,0,0,1,2.1-4.3,7.28,7.28,0,0,1,2.27-1.13,9.56,9.56,0,0,1,2.8-.39A15.07,15.07,0,0,1,324,144a7.64,7.64,0,0,1,3.11,1.65l-2.4,2.44a5.41,5.41,0,0,0-2.12-1.07,10.15,10.15,0,0,0-2.57-.32,4.15,4.15,0,0,0-2.59.68,2.13,2.13,0,0,0-.86,1.76,2,2,0,0,0,.54,1.44,3.29,3.29,0,0,0,2.08.73l3,.26a7.1,7.1,0,0,1,4.18,1.52,4.84,4.84,0,0,1,1.48,3.85A5.5,5.5,0,0,1,327.25,159.59Z"/><path class="cls-1" d="M57.39,192.56h-2l-3-10.38-3,10.38h-2L43.6,177.74H46l2.58,10.59,3-10.59h1.81l3,10.59,2.58-10.59h2.37Z"/><path class="cls-1" d="M63.43,187.9a3.19,3.19,0,0,0,.69,2.16,2.5,2.5,0,0,0,2,.79,3.41,3.41,0,0,0,1.45-.26,4.06,4.06,0,0,0,1.11-.82L70,191a7.55,7.55,0,0,1-.82.72,4.52,4.52,0,0,1-1.89.82,6.76,6.76,0,0,1-1.24.1,6,6,0,0,1-1.86-.28,3.75,3.75,0,0,1-1.5-.92,4.45,4.45,0,0,1-1-1.68,7.47,7.47,0,0,1-.38-2.54,5.87,5.87,0,0,1,1.23-4,4.12,4.12,0,0,1,3.27-1.4,4.57,4.57,0,0,1,1.89.37,4,4,0,0,1,1.4,1,4.59,4.59,0,0,1,.87,1.6,6.69,6.69,0,0,1,.3,2.06v.94Zm4.67-2.26a2.6,2.6,0,0,0-.22-.66,2.12,2.12,0,0,0-.79-1,2.26,2.26,0,0,0-1.29-.36,2.31,2.31,0,0,0-1.3.36,2.09,2.09,0,0,0-.8,1,2.29,2.29,0,0,0-.21.66c0,.2,0,.46-.06.78h4.74A6.37,6.37,0,0,0,68.1,185.64Z"/><path class="cls-1" d="M75.4,192.56a3.25,3.25,0,0,1-1.3-.24,2.55,2.55,0,0,1-.91-.63,2.49,2.49,0,0,1-.52-.93,3.7,3.7,0,0,1-.17-1.11v-11.9h2.12v11.78a1.44,1.44,0,0,0,.25.92,1.09,1.09,0,0,0,.9.31h.94v1.81Z"/><path class="cls-1" d="M84.59,192.56v-1.12a3.23,3.23,0,0,1-1.26,1,4.13,4.13,0,0,1-1.53.26,4.2,4.2,0,0,1-1.47-.25,3,3,0,0,1-1.11-.69,3.13,3.13,0,0,1-.63-.92,5.24,5.24,0,0,1-.36-1.11,7.84,7.84,0,0,1-.16-1.22q0-.62,0-1.23t0-1.23a7.61,7.61,0,0,1,.16-1.21,5.3,5.3,0,0,1,.36-1.1,3.13,3.13,0,0,1,.63-.92,3,3,0,0,1,1.1-.69,4.12,4.12,0,0,1,1.46-.25,4.31,4.31,0,0,1,1.52.25,3.09,3.09,0,0,1,1.25.94v-5.33h2.12v14.82Zm-.11-6.63a3.51,3.51,0,0,0-.3-1.11,1.82,1.82,0,0,0-.67-.76,2.5,2.5,0,0,0-2.3,0,1.92,1.92,0,0,0-.67.76,3.32,3.32,0,0,0-.31,1.11,12.42,12.42,0,0,0,0,2.68,3.42,3.42,0,0,0,.31,1.12,1.9,1.9,0,0,0,.67.77,2.5,2.5,0,0,0,2.3,0,1.8,1.8,0,0,0,.67-.77,3.62,3.62,0,0,0,.3-1.12,12.42,12.42,0,0,0,0-2.68Z"/><path class="cls-1" d="M89.48,179.93v-2.25h2.25v2.25Zm.06,12.63V182h2.12v10.55Z"/><path class="cls-1" d="M101,192.56v-6.43a2.32,2.32,0,0,0-.61-1.79,2.15,2.15,0,0,0-1.51-.56,2.1,2.1,0,0,0-2.19,2.35v6.43H94.54V182h2.08v1.06a3.35,3.35,0,0,1,1.28-.9,4.29,4.29,0,0,1,3,0,3.34,3.34,0,0,1,1.13.71,3.25,3.25,0,0,1,.83,1.34,5.51,5.51,0,0,1,.23,1.63v6.74Z"/><path class="cls-1" d="M113.58,194.29a4,4,0,0,1-2.31,2.33,5.07,5.07,0,0,1-1.89.33,5.93,5.93,0,0,1-2-.31,5.13,5.13,0,0,1-1.68-1.08l1.35-1.35a3.7,3.7,0,0,0,1,.71,3.11,3.11,0,0,0,1.29.23,2.68,2.68,0,0,0,1.13-.22,2.12,2.12,0,0,0,.77-.59,2.37,2.37,0,0,0,.44-.85,3.71,3.71,0,0,0,.14-1v-1.35a3.19,3.19,0,0,1-1.25.94,4.07,4.07,0,0,1-1.48.26,4,4,0,0,1-1.44-.25,3.08,3.08,0,0,1-1.08-.69,3.49,3.49,0,0,1-1-1.85,14.32,14.32,0,0,1,0-4.87,3.49,3.49,0,0,1,1-1.85,3.43,3.43,0,0,1,2.54-.92,4.07,4.07,0,0,1,1.51.26,3.23,3.23,0,0,1,1.26,1V182h2.06V192.5A5,5,0,0,1,113.58,194.29Zm-1.87-8.41a3.18,3.18,0,0,0-.29-1.06,1.86,1.86,0,0,0-.66-.75,2,2,0,0,0-1.13-.28,2.07,2.07,0,0,0-1.16.28,1.78,1.78,0,0,0-.65.75,3.51,3.51,0,0,0-.29,1.06,10.29,10.29,0,0,0,0,2.44,3.51,3.51,0,0,0,.29,1.06,1.78,1.78,0,0,0,.65.75,2.07,2.07,0,0,0,1.16.28,2,2,0,0,0,1.13-.28,1.86,1.86,0,0,0,.66-.75,3.18,3.18,0,0,0,.29-1.06,12,12,0,0,0,0-2.44Z"/><path class="cls-1" d="M121.49,192.56V177.74H131v2h-7.22v4.33h6.16v2h-6.16v4.45H131v2Z"/><path class="cls-1" d="M139.7,192.56v-6.43a2.33,2.33,0,0,0-.61-1.79,2.16,2.16,0,0,0-1.51-.56,2.11,2.11,0,0,0-2.19,2.35v6.43h-2.12V182h2.08v1.06a3.35,3.35,0,0,1,1.28-.9,4.29,4.29,0,0,1,3,0,3.35,3.35,0,0,1,1.13.71,3.26,3.26,0,0,1,.83,1.34,5.51,5.51,0,0,1,.23,1.63v6.74Z"/><path class="cls-1" d="M152.31,194.29a4,4,0,0,1-2.31,2.33,5.07,5.07,0,0,1-1.89.33,5.93,5.93,0,0,1-2-.31,5.14,5.14,0,0,1-1.68-1.08l1.35-1.35a3.7,3.7,0,0,0,1,.71,3.11,3.11,0,0,0,1.29.23,2.68,2.68,0,0,0,1.13-.22,2.13,2.13,0,0,0,.77-.59,2.36,2.36,0,0,0,.44-.85,3.73,3.73,0,0,0,.14-1v-1.35a3.18,3.18,0,0,1-1.25.94,4.07,4.07,0,0,1-1.48.26,3.94,3.94,0,0,1-1.44-.25,3.09,3.09,0,0,1-1.08-.69,3.5,3.5,0,0,1-1-1.85,14.35,14.35,0,0,1,0-4.87,3.5,3.5,0,0,1,1-1.85,3.43,3.43,0,0,1,2.54-.92,4.07,4.07,0,0,1,1.51.26,3.24,3.24,0,0,1,1.26,1V182h2.06V192.5A5,5,0,0,1,152.31,194.29Zm-1.87-8.41a3.16,3.16,0,0,0-.29-1.06,1.86,1.86,0,0,0-.66-.75,2,2,0,0,0-1.13-.28,2.07,2.07,0,0,0-1.16.28,1.79,1.79,0,0,0-.65.75,3.54,3.54,0,0,0-.29,1.06,10.22,10.22,0,0,0,0,2.44,3.54,3.54,0,0,0,.29,1.06,1.79,1.79,0,0,0,.65.75,2.07,2.07,0,0,0,1.16.28,2,2,0,0,0,1.13-.28,1.86,1.86,0,0,0,.66-.75,3.16,3.16,0,0,0,.29-1.06,12,12,0,0,0,0-2.44Z"/><path class="cls-1" d="M155.43,179.93v-2.25h2.25v2.25Zm.06,12.63V182h2.12v10.55Z"/><path class="cls-1" d="M166.92,192.56v-6.43a2.33,2.33,0,0,0-.61-1.79,2.16,2.16,0,0,0-1.51-.56,2.11,2.11,0,0,0-2.19,2.35v6.43h-2.12V182h2.08v1.06a3.35,3.35,0,0,1,1.28-.9,4.29,4.29,0,0,1,3,0,3.35,3.35,0,0,1,1.13.71,3.26,3.26,0,0,1,.83,1.34,5.51,5.51,0,0,1,.23,1.63v6.74Z"/><path class="cls-1" d="M173.4,187.9a3.19,3.19,0,0,0,.69,2.16,2.5,2.5,0,0,0,2,.79,3.41,3.41,0,0,0,1.45-.26,4.06,4.06,0,0,0,1.11-.82L180,191a7.5,7.5,0,0,1-.82.72,4.51,4.51,0,0,1-1.89.82,6.75,6.75,0,0,1-1.24.1,6,6,0,0,1-1.86-.28,3.76,3.76,0,0,1-1.5-.92,4.47,4.47,0,0,1-1-1.68,7.48,7.48,0,0,1-.38-2.54,5.87,5.87,0,0,1,1.23-4,4.13,4.13,0,0,1,3.27-1.4,4.58,4.58,0,0,1,1.89.37,4,4,0,0,1,1.4,1,4.58,4.58,0,0,1,.87,1.6,6.69,6.69,0,0,1,.3,2.06v.94Zm4.67-2.26a2.6,2.6,0,0,0-.22-.66,2.12,2.12,0,0,0-.79-1,2.26,2.26,0,0,0-1.29-.36,2.31,2.31,0,0,0-1.3.36,2.1,2.1,0,0,0-.8,1,2.27,2.27,0,0,0-.21.66c0,.2,0,.46-.06.78h4.75A6.66,6.66,0,0,0,178.07,185.64Z"/><path class="cls-1" d="M184.11,187.9a3.19,3.19,0,0,0,.69,2.16,2.5,2.5,0,0,0,2,.79,3.41,3.41,0,0,0,1.45-.26,4.06,4.06,0,0,0,1.11-.82l1.35,1.27a7.5,7.5,0,0,1-.82.72,4.51,4.51,0,0,1-1.89.82,6.75,6.75,0,0,1-1.24.1,6,6,0,0,1-1.86-.28,3.76,3.76,0,0,1-1.5-.92,4.47,4.47,0,0,1-1-1.68,7.48,7.48,0,0,1-.38-2.54,5.87,5.87,0,0,1,1.23-4,4.13,4.13,0,0,1,3.27-1.4,4.58,4.58,0,0,1,1.89.37,4,4,0,0,1,1.4,1,4.58,4.58,0,0,1,.87,1.6A6.69,6.69,0,0,1,191,187v.94Zm4.67-2.26a2.6,2.6,0,0,0-.22-.66,2.12,2.12,0,0,0-.79-1,2.26,2.26,0,0,0-1.29-.36,2.31,2.31,0,0,0-1.3.36,2.1,2.1,0,0,0-.8,1,2.27,2.27,0,0,0-.21.66c0,.2,0,.46-.06.78h4.75A6.66,6.66,0,0,0,188.78,185.64Z"/><path class="cls-1" d="M199.05,184.49a2.88,2.88,0,0,0-.7-.53,1.93,1.93,0,0,0-.88-.18,2,2,0,0,0-1.49.63,2.39,2.39,0,0,0-.61,1.74v6.41h-2.12V182h2.08v1.14a3,3,0,0,1,1.17-.92,3.8,3.8,0,0,1,1.64-.35,3.86,3.86,0,0,1,1.37.23,3.28,3.28,0,0,1,1.14.77Z"/><path class="cls-1" d="M201.8,179.93v-2.25H204v2.25Zm.06,12.63V182H204v10.55Z"/><path class="cls-1" d="M213.29,192.56v-6.43a2.33,2.33,0,0,0-.61-1.79,2.16,2.16,0,0,0-1.51-.56,2.11,2.11,0,0,0-2.19,2.35v6.43h-2.12V182h2.08v1.06a3.35,3.35,0,0,1,1.28-.9,4.29,4.29,0,0,1,3,0,3.35,3.35,0,0,1,1.13.71,3.26,3.26,0,0,1,.83,1.34,5.51,5.51,0,0,1,.23,1.63v6.74Z"/><path class="cls-1" d="M225.92,194.29a4,4,0,0,1-2.31,2.33,5.07,5.07,0,0,1-1.89.33,5.93,5.93,0,0,1-2-.31,5.14,5.14,0,0,1-1.68-1.08l1.35-1.35a3.7,3.7,0,0,0,1,.71,3.11,3.11,0,0,0,1.29.23,2.68,2.68,0,0,0,1.13-.22,2.13,2.13,0,0,0,.77-.59,2.36,2.36,0,0,0,.44-.85,3.73,3.73,0,0,0,.14-1v-1.35a3.18,3.18,0,0,1-1.25.94,4.07,4.07,0,0,1-1.48.26,3.94,3.94,0,0,1-1.44-.25,3.09,3.09,0,0,1-1.08-.69,3.5,3.5,0,0,1-1-1.85,14.35,14.35,0,0,1,0-4.87,3.5,3.5,0,0,1,1-1.85,3.43,3.43,0,0,1,2.54-.92,4.07,4.07,0,0,1,1.51.26,3.24,3.24,0,0,1,1.26,1V182h2.06V192.5A5,5,0,0,1,225.92,194.29ZM224,185.88a3.16,3.16,0,0,0-.29-1.06,1.86,1.86,0,0,0-.66-.75,2,2,0,0,0-1.13-.28,2.07,2.07,0,0,0-1.16.28,1.79,1.79,0,0,0-.65.75,3.54,3.54,0,0,0-.29,1.06,10.22,10.22,0,0,0,0,2.44,3.54,3.54,0,0,0,.29,1.06,1.79,1.79,0,0,0,.65.75,2.07,2.07,0,0,0,1.16.28,2,2,0,0,0,1.13-.28,1.86,1.86,0,0,0,.66-.75,3.16,3.16,0,0,0,.29-1.06,12,12,0,0,0,0-2.44Z"/><path class="cls-1" d="M242.72,190.17a3.94,3.94,0,0,1-1.1,1.37,5,5,0,0,1-1.69.85,7.48,7.48,0,0,1-2.14.29,8.9,8.9,0,0,1-2.93-.44,6,6,0,0,1-2.31-1.52l1.5-1.48a4.4,4.4,0,0,0,1.73,1.11,6.55,6.55,0,0,0,2.06.3,3.74,3.74,0,0,0,2.26-.59,2.23,2.23,0,0,0,.22-3.22,1.9,1.9,0,0,0-.62-.4,5.43,5.43,0,0,0-1-.23l-1.75-.25a5,5,0,0,1-2.81-1.19A3.7,3.7,0,0,1,233,182a4.43,4.43,0,0,1,.34-1.76,4,4,0,0,1,1-1.38,4.31,4.31,0,0,1,1.55-.9,6.43,6.43,0,0,1,2.08-.31,7.48,7.48,0,0,1,2.56.4,6,6,0,0,1,2,1.29l-1.44,1.42a3.63,3.63,0,0,0-1.49-.91,6.06,6.06,0,0,0-1.74-.24,2.83,2.83,0,0,0-2,.66,2.17,2.17,0,0,0-.7,1.65,2,2,0,0,0,.14.76,1.66,1.66,0,0,0,.43.61,3.17,3.17,0,0,0,1.67.69l1.69.25a7.57,7.57,0,0,1,1.67.43,4,4,0,0,1,1.1.68,3.4,3.4,0,0,1,.91,1.31,4.7,4.7,0,0,1,.3,1.73A4.13,4.13,0,0,1,242.72,190.17Z"/><path class="cls-1" d="M254,188.5a7.67,7.67,0,0,1-.16,1.22,5.18,5.18,0,0,1-.36,1.11,3.13,3.13,0,0,1-.63.92,3,3,0,0,1-1.1.69,4.47,4.47,0,0,1-3,0,3.18,3.18,0,0,1-1.25-.95v5.35h-2.12V182h2.08v1.12a3.23,3.23,0,0,1,1.26-1,4.13,4.13,0,0,1,1.53-.26,4.2,4.2,0,0,1,1.47.25,3,3,0,0,1,1.11.69,3.13,3.13,0,0,1,.63.92,5.24,5.24,0,0,1,.36,1.1A7.44,7.44,0,0,1,254,186q0,.62,0,1.23T254,188.5Zm-2.16-2.57a3.51,3.51,0,0,0-.3-1.11,1.82,1.82,0,0,0-.67-.76,2.5,2.5,0,0,0-2.3,0,1.91,1.91,0,0,0-.67.76,3.34,3.34,0,0,0-.31,1.11,12.5,12.5,0,0,0,0,2.68,3.45,3.45,0,0,0,.31,1.12,1.9,1.9,0,0,0,.67.77,2.5,2.5,0,0,0,2.3,0,1.81,1.81,0,0,0,.67-.77,3.62,3.62,0,0,0,.3-1.12,12.5,12.5,0,0,0,0-2.68Z"/><path class="cls-1" d="M258,187.9a3.19,3.19,0,0,0,.69,2.16,2.5,2.5,0,0,0,2,.79,3.41,3.41,0,0,0,1.45-.26,4.06,4.06,0,0,0,1.11-.82l1.35,1.27a7.5,7.5,0,0,1-.82.72,4.51,4.51,0,0,1-1.89.82,6.75,6.75,0,0,1-1.24.1,6,6,0,0,1-1.86-.28,3.76,3.76,0,0,1-1.5-.92,4.47,4.47,0,0,1-1-1.68,7.48,7.48,0,0,1-.38-2.54,5.87,5.87,0,0,1,1.23-4,4.13,4.13,0,0,1,3.27-1.4,4.58,4.58,0,0,1,1.89.37,4,4,0,0,1,1.4,1,4.58,4.58,0,0,1,.87,1.6,6.69,6.69,0,0,1,.3,2.06v.94Zm4.67-2.26a2.6,2.6,0,0,0-.22-.66,2.12,2.12,0,0,0-.79-1,2.26,2.26,0,0,0-1.29-.36,2.31,2.31,0,0,0-1.3.36,2.1,2.1,0,0,0-.8,1,2.27,2.27,0,0,0-.21.66c0,.2,0,.46-.06.78h4.75A6.66,6.66,0,0,0,262.64,185.64Z"/><path class="cls-1" d="M273.18,192.33a4.77,4.77,0,0,1-1.92.35,5.28,5.28,0,0,1-1.74-.29,4,4,0,0,1-1.5-.94,4.74,4.74,0,0,1-1.06-1.68,7.94,7.94,0,0,1,0-5A4.65,4.65,0,0,1,268,183.1a4,4,0,0,1,1.5-.93,5.28,5.28,0,0,1,1.74-.29,4.89,4.89,0,0,1,1.92.34,4.71,4.71,0,0,1,1.56,1.13l-1.46,1.42a3.55,3.55,0,0,0-.95-.77,2.55,2.55,0,0,0-3,.71,2.49,2.49,0,0,0-.49,1,7.11,7.11,0,0,0-.13,1.53,7.26,7.26,0,0,0,.13,1.54,2.49,2.49,0,0,0,.49,1,2.55,2.55,0,0,0,3,.71,3.52,3.52,0,0,0,.95-.77l1.46,1.39A4.84,4.84,0,0,1,273.18,192.33Z"/><path class="cls-1" d="M276.64,179.93v-2.25h2.25v2.25Zm.06,12.63V182h2.12v10.55Z"/><path class="cls-1" d="M287.38,192.56v-1a3.64,3.64,0,0,1-1.21.83,4.36,4.36,0,0,1-1.6.25,5.07,5.07,0,0,1-1.67-.24,3,3,0,0,1-1.16-.72,3.15,3.15,0,0,1-.83-2.27,2.87,2.87,0,0,1,.91-2.19,3.86,3.86,0,0,1,2.74-.85h2.79v-.75a1.93,1.93,0,0,0-.53-1.49,2.6,2.6,0,0,0-1.78-.49,3.37,3.37,0,0,0-1.37.23,2.58,2.58,0,0,0-.94.79l-1.39-1.31a4,4,0,0,1,1.61-1.2,6.29,6.29,0,0,1,2.17-.32q4.35,0,4.35,3.62v7.06Zm0-4.66h-2.48a2.18,2.18,0,0,0-1.42.4,1.37,1.37,0,0,0-.48,1.12,1.36,1.36,0,0,0,.47,1.11,2.29,2.29,0,0,0,1.47.39,5.66,5.66,0,0,0,1.08-.09,1.74,1.74,0,0,0,.9-.51,2.17,2.17,0,0,0,.46-1.56Z"/><path class="cls-1" d="M295,192.56a3.24,3.24,0,0,1-1.3-.24,2.55,2.55,0,0,1-.91-.63,2.47,2.47,0,0,1-.52-.93,3.68,3.68,0,0,1-.17-1.11v-11.9h2.12v11.78a1.44,1.44,0,0,0,.25.92,1.09,1.09,0,0,0,.89.31h.94v1.81Z"/><path class="cls-1" d="M298.11,179.93v-2.25h2.25v2.25Zm.06,12.63V182h2.12v10.55Z"/><path class="cls-1" d="M310.64,190.79a3.1,3.1,0,0,1-.92,1.05,4,4,0,0,1-1.39.63,7,7,0,0,1-1.75.21,9.07,9.07,0,0,1-2.39-.3,4.67,4.67,0,0,1-2-1.22l1.39-1.39a3.15,3.15,0,0,0,1.45.88,6,6,0,0,0,1.59.22,3.47,3.47,0,0,0,1.64-.35,1.27,1.27,0,0,0,.34-2,1.72,1.72,0,0,0-1.09-.38l-1.69-.15a4,4,0,0,1-2.31-.82,2.61,2.61,0,0,1-.81-2.09,2.88,2.88,0,0,1,1.17-2.38,4,4,0,0,1,1.26-.62,5.3,5.3,0,0,1,1.55-.22,8.35,8.35,0,0,1,2.19.27,4.24,4.24,0,0,1,1.73.92l-1.33,1.35a3,3,0,0,0-1.18-.59,5.63,5.63,0,0,0-1.43-.18,2.31,2.31,0,0,0-1.44.37,1.18,1.18,0,0,0-.48,1,1.13,1.13,0,0,0,.3.8,1.83,1.83,0,0,0,1.16.41l1.67.15a3.93,3.93,0,0,1,2.32.84,2.68,2.68,0,0,1,.82,2.13A3.05,3.05,0,0,1,310.64,190.79Z"/><path class="cls-1" d="M316,192.56a3.06,3.06,0,0,1-1.29-.25,2.63,2.63,0,0,1-.9-.66,2.72,2.72,0,0,1-.53-.94,3.43,3.43,0,0,1-.18-1.09v-5.81h-1.21V182.2h1.21V179h2.12v3.2h2v1.62h-2v5.7a1.34,1.34,0,0,0,.28.91,1.11,1.11,0,0,0,.88.32h.87v1.81Z"/><path class="cls-1" d="M326.94,190.79a3.1,3.1,0,0,1-.92,1.05,4,4,0,0,1-1.39.63,7,7,0,0,1-1.75.21,9.07,9.07,0,0,1-2.39-.3,4.67,4.67,0,0,1-2-1.22l1.39-1.39a3.15,3.15,0,0,0,1.45.88,6,6,0,0,0,1.59.22,3.47,3.47,0,0,0,1.64-.35,1.27,1.27,0,0,0,.34-2,1.72,1.72,0,0,0-1.09-.38l-1.69-.15a4,4,0,0,1-2.31-.82,2.61,2.61,0,0,1-.81-2.09,2.88,2.88,0,0,1,1.17-2.38,4,4,0,0,1,1.26-.62,5.3,5.3,0,0,1,1.55-.22,8.35,8.35,0,0,1,2.19.27,4.24,4.24,0,0,1,1.73.92l-1.33,1.35a3,3,0,0,0-1.18-.59,5.63,5.63,0,0,0-1.43-.18,2.31,2.31,0,0,0-1.44.37,1.18,1.18,0,0,0-.48,1,1.13,1.13,0,0,0,.3.8,1.83,1.83,0,0,0,1.16.41l1.67.15a3.93,3.93,0,0,1,2.32.84,2.68,2.68,0,0,1,.82,2.13A3.05,3.05,0,0,1,326.94,190.79Z"/></svg>